<?xml version="1.0" standalone="no"?>
<!DOCTYPE svg PUBLIC "-//W3C//DTD SVG 20010904//EN"
 "http://www.w3.org/TR/2001/REC-SVG-20010904/DTD/svg10.dtd">
<svg version="1.0" xmlns="http://www.w3.org/2000/svg"
 width="700.000000pt" height="700.000000pt" viewBox="0 0 700.000000 700.000000"
 preserveAspectRatio="xMidYMid meet">
<metadata>
Created by potrace 1.11, written by Peter Selinger 2001-2013
</metadata>
<g transform="translate(0.000000,700.000000) scale(0.100000,-0.100000)"
fill="#000000" stroke="none">
<path d="M3428 6415 c-2 -1 -29 -5 -61 -9 -32 -3 -63 -8 -68 -11 -5 -4 -19 -8
-31 -10 -54 -11 -188 -72 -253 -116 -312 -211 -449 -572 -361 -954 49 -214
235 -444 446 -550 493 -248 1086 6 1238 530 28 97 36 154 34 268 -5 389 -280
732 -662 828 -68 16 -270 34 -282 24z"/>
<path d="M878 4656 c-2 -6 -4 -728 -4 -1604 l1 -1594 130 -3 c124 -4 214 -10
298 -20 20 -3 56 -7 80 -10 23 -3 53 -8 67 -10 14 -3 41 -7 60 -10 30 -4 86
-14 210 -40 23 -4 77 -17 90 -20 3 -1 19 -5 35 -9 17 -4 41 -12 55 -17 14 -5
34 -10 45 -12 11 -2 27 -6 35 -9 8 -3 78 -27 155 -53 350 -119 716 -311 1024
-538 86 -64 243 -193 303 -250 l37 -35 34 32 c41 38 201 172 242 203 17 12 53
38 80 59 121 91 388 254 550 336 365 184 830 326 1220 373 28 3 65 8 84 11 63
8 159 15 287 19 l129 4 0 1603 0 1603 -100 -1 c-95 -2 -283 -13 -315 -19 -9
-2 -43 -6 -75 -10 -61 -7 -206 -30 -247 -40 -13 -2 -35 -7 -51 -9 -15 -3 -35
-7 -45 -10 -9 -3 -28 -7 -42 -10 -119 -21 -441 -124 -590 -188 -407 -174 -739
-379 -1050 -648 -41 -35 -82 -72 -91 -82 -18 -20 -7 -27 -154 104 -191 170
-541 398 -805 526 -250 120 -566 236 -758 277 -9 2 -69 15 -132 28 -115 25
-290 53 -385 61 -259 24 -402 28 -407 12z"/>
</g>
</svg>
